<!-- Lucide 1.28.0 - ISC - https://lucide.dev + KOReader - AGPL-3.0-or-later - drawn on the Lucide grid -->
<svg xmlns="http://www.w3.org/2000/svg" width="24" height="24" viewBox="0 0 24 24" fill="none" stroke="#000000" stroke-width="2" stroke-linecap="round" stroke-linejoin="round">
  <path stroke="#666666" d="M15 8a1 1 0 0 1-1-1V2a2.4 2.4 0 0 1 1.704.706l3.588 3.588A2.4 2.4 0 0 1 20 8z"/>
  <path stroke="#666666" d="M20 8v12a2 2 0 0 1-2 2h-4.182"/>
  <path stroke="#666666" d="M4 10.592V4a2 2 0 0 1 2-2h8"/>
  <g transform="translate(1 11) scale(0.5)" stroke-width="4"><path stroke="#666666" d="M21 12a9 9 0 1 1-9-9c2.52 0 4.93 1 6.74 2.74L21 8" /> <path stroke="#666666" d="M21 3v5h-5" />
  </g>
</svg>
